<svg xmlns="http://www.w3.org/2000/svg" width="15.47" height="27.255" viewBox="0 0 15.47 27.255">
  <path id="facebook" d="M11.512,6.746c.037-.042.211-.179.895-.179h2.241A1.323,1.323,0,0,0,15.97,5.244V1.328A1.324,1.324,0,0,0,14.65.005L11.321,0A6.85,6.85,0,0,0,6.27,1.96a7.193,7.193,0,0,0-1.9,5.153V9.226H1.822A1.324,1.324,0,0,0,.5,10.548v4.218a1.324,1.324,0,0,0,1.322,1.322H4.369v9.845a1.324,1.324,0,0,0,1.322,1.322h4.365a1.324,1.324,0,0,0,1.322-1.322V16.088H14.49a1.323,1.323,0,0,0,1.322-1.322l0-4.219a1.326,1.326,0,0,0-.68-1.156,1.343,1.343,0,0,0-.654-.166h-3.1V7.557C11.377,7.013,11.451,6.816,11.512,6.746Zm0,0" transform="translate(-0.5)" fill="#fff"/>
</svg>
