<svg xmlns="http://www.w3.org/2000/svg" width="29.394" height="27.255" viewBox="0 0 29.394 27.255">
  <g id="google-plus" transform="translate(0 1.25)">
    <path id="Path_4" data-name="Path 4" d="M11.813,101.385a11.813,11.813,0,1,1,5.974-22.007l.7.41L15.9,84.848l-.8-.5a6.175,6.175,0,1,0,.261,10.283,5.25,5.25,0,0,0,1.555-1.747h-5.4v-5.39H23.473l.082.768a12.848,12.848,0,0,1,.072,1.311A11.827,11.827,0,0,1,11.813,101.385Zm0,0" transform="translate(0 -75.379)" fill="#fff"/>
    <path id="Path_5" data-name="Path 5" d="M438.8,8.316h-4.6V5.835h-2.482v-4.6H434.2V-1.25h4.6V1.232h2.482v4.6H438.8Zm0,0" transform="translate(-411.887)" fill="#fff"/>
  </g>
</svg>
