<svg id="instagram" xmlns="http://www.w3.org/2000/svg" width="27.255" height="27.255" viewBox="0 0 27.255 27.255">
  <path id="Path_1" data-name="Path 1" d="M19.878,0H7.378A7.386,7.386,0,0,0,0,7.378v12.5a7.386,7.386,0,0,0,7.378,7.378h12.5a7.386,7.386,0,0,0,7.378-7.378V7.378A7.386,7.386,0,0,0,19.878,0Zm-6.25,21.08a7.452,7.452,0,1,1,7.452-7.452A7.461,7.461,0,0,1,13.628,21.08ZM21.258,7.933a2.2,2.2,0,1,1,2.2-2.2A2.2,2.2,0,0,1,21.258,7.933Zm0,0" fill="#fff"/>
  <path id="Path_2" data-name="Path 2" d="M151.874,146.02a5.855,5.855,0,1,0,5.855,5.855A5.861,5.861,0,0,0,151.874,146.02Zm0,0" transform="translate(-138.246 -138.246)" fill="#fff"/>
  <path id="Path_3" data-name="Path 3" d="M388.6,96.3a.6.6,0,1,0,.6.6A.605.605,0,0,0,388.6,96.3Zm0,0" transform="translate(-367.338 -91.174)" fill="#fff"/>
</svg>
