<svg xmlns="http://www.w3.org/2000/svg" width="33.013" height="27.255" viewBox="0 0 33.013 27.255">
  <path id="twitter" d="M32.551,3.132a1.539,1.539,0,0,0-.448-.309q.167-.355.3-.724A1.509,1.509,0,0,0,32.077.442a1.535,1.535,0,0,0-1.718-.3C29.143.661,27.971,1.154,27,1.472A10.953,10.953,0,0,0,22.478,0h-.014A7.659,7.659,0,0,0,17,2.41a8.083,8.083,0,0,0-2.183,4.661A17.6,17.6,0,0,1,4.664,1.513L4.291,1.14a1.142,1.142,0,0,0-1.829.3l-.2.41a7.762,7.762,0,0,0-.826,5.172,8.052,8.052,0,0,0,.608,1.856,1.6,1.6,0,0,0-.761.215,1.605,1.605,0,0,0-.743,1.722l.009.044.013.043a10.418,10.418,0,0,0,2.135,3.826,1.573,1.573,0,0,0-.469.24,1.541,1.541,0,0,0-.538,1.8,7.14,7.14,0,0,0,3.763,4.348,14.237,14.237,0,0,1-3.762.518A1.726,1.726,0,0,0,.111,22.71l-.019.053a1.7,1.7,0,0,0,.445,1.782l.037.037.041.032c2.083,1.678,6.438,2.641,11.948,2.641,9.717,0,17.645-8.5,17.843-19.026A6.334,6.334,0,0,0,32.95,4.737l.015-.053A1.661,1.661,0,0,0,32.551,3.132Zm0,0" transform="translate(0 0)" fill="#fff"/>
</svg>
